# xmcd CD database file
#
# Track frame offsets:
#	150
#	20870
#	40605
#	61290
#
# Disc length: 1078 seconds
#
# Revision: 7
# Processed by: cddbd v1.5.1PL0 Copyright (c) Steve Scherf et al.
# Submitted via: CDex 1.51
#
DISCID=2d043404
DTITLE=松本保典・置鮎龍太郎・谷本憲彦 - 疾風!アイアンリーガー
DYEAR=1993
DGENRE=Anime
TTITLE0=我等!アイアンリーガー
TTITLE1=With -友よ共に-
TTITLE2=我等!アイアンリーガー（オリジナルカラオケ）
TTITLE3=With -友よ共に-（オリジナルカラオケ）
EXTD=YEAR: 1993
EXTT0=
EXTT1=
EXTT2=
EXTT3=
PLAYORDER=
